<mxfile host="app.diagrams.net" modified="2020-11-24T13:56:04.940Z" agent="5.0 (Macintosh; Intel Mac OS X 11_0_0) AppleWebKit/537.36 (KHTML, like Gecko) Chrome/86.0.4240.198 Safari/537.36" etag="MORl-LQ2JXdBob23iJBc" version="13.9.1" type="github">
  <diagram name="Page-1" id="2a216829-ef6e-dabb-86c1-c78162f3ba2b">
    <mxGraphModel dx="2596" dy="1518" grid="1" gridSize="10" guides="1" tooltips="1" connect="1" arrows="1" fold="1" page="1" pageScale="1" pageWidth="1654" pageHeight="1169" background="#ffffff" math="0" shadow="0">
      <root>
        <mxCell id="0" />
        <mxCell id="1" parent="0" />
        <mxCell id="eHfQy5FBiY7wrmqpAAzu-1" value="Pool" style="swimlane;html=1;childLayout=stackLayout;resizeParent=1;resizeParentMax=0;horizontal=0;startSize=20;horizontalStack=0;" vertex="1" parent="1">
          <mxGeometry x="130" y="270" width="2140" height="660" as="geometry" />
        </mxCell>
        <mxCell id="eHfQy5FBiY7wrmqpAAzu-2" value="Lane 1" style="swimlane;html=1;startSize=20;horizontal=0;" vertex="1" parent="eHfQy5FBiY7wrmqpAAzu-1">
          <mxGeometry x="20" width="2120" height="420" as="geometry" />
        </mxCell>
        <mxCell id="eHfQy5FBiY7wrmqpAAzu-4" value="Lane 3" style="swimlane;html=1;startSize=20;horizontal=0;" vertex="1" parent="eHfQy5FBiY7wrmqpAAzu-1">
          <mxGeometry x="20" y="420" width="2120" height="240" as="geometry" />
        </mxCell>
        <mxCell id="eHfQy5FBiY7wrmqpAAzu-5" value="User" style="html=1;whiteSpace=wrap;rounded=1;dropTarget=0;" vertex="1" parent="1">
          <mxGeometry x="350" y="140" width="120" height="80" as="geometry" />
        </mxCell>
        <mxCell id="eHfQy5FBiY7wrmqpAAzu-6" value="" style="html=1;shape=mxgraph.bpmn.user_task;outlineConnect=0;" vertex="1" parent="eHfQy5FBiY7wrmqpAAzu-5">
          <mxGeometry width="14" height="14" relative="1" as="geometry">
            <mxPoint x="7" y="7" as="offset" />
          </mxGeometry>
        </mxCell>
        <mxCell id="eHfQy5FBiY7wrmqpAAzu-7" value="" style="html=1;shape=plus;outlineConnect=0;" vertex="1" parent="eHfQy5FBiY7wrmqpAAzu-5">
          <mxGeometry x="0.5" y="1" width="14" height="14" relative="1" as="geometry">
            <mxPoint x="-7" y="-14" as="offset" />
          </mxGeometry>
        </mxCell>
        <mxCell id="eHfQy5FBiY7wrmqpAAzu-12" style="edgeStyle=orthogonalEdgeStyle;rounded=0;orthogonalLoop=1;jettySize=auto;html=1;endArrow=block;endFill=1;" edge="1" parent="1" source="eHfQy5FBiY7wrmqpAAzu-8">
          <mxGeometry relative="1" as="geometry">
            <mxPoint x="750" y="180" as="targetPoint" />
          </mxGeometry>
        </mxCell>
        <mxCell id="eHfQy5FBiY7wrmqpAAzu-8" value="User" style="html=1;whiteSpace=wrap;rounded=1;dropTarget=0;" vertex="1" parent="1">
          <mxGeometry x="520" y="150" width="120" height="80" as="geometry" />
        </mxCell>
        <mxCell id="eHfQy5FBiY7wrmqpAAzu-9" value="" style="html=1;shape=mxgraph.bpmn.user_task;outlineConnect=0;" vertex="1" parent="eHfQy5FBiY7wrmqpAAzu-8">
          <mxGeometry width="14" height="14" relative="1" as="geometry">
            <mxPoint x="7" y="7" as="offset" />
          </mxGeometry>
        </mxCell>
        <mxCell id="eHfQy5FBiY7wrmqpAAzu-11" value="" style="endArrow=block;endFill=1;endSize=6;html=1;exitX=1;exitY=0.5;exitDx=0;exitDy=0;entryX=0;entryY=0.5;entryDx=0;entryDy=0;" edge="1" parent="1" source="eHfQy5FBiY7wrmqpAAzu-5" target="eHfQy5FBiY7wrmqpAAzu-8">
          <mxGeometry width="100" relative="1" as="geometry">
            <mxPoint x="850" y="530" as="sourcePoint" />
            <mxPoint x="950" y="530" as="targetPoint" />
          </mxGeometry>
        </mxCell>
        <mxCell id="eHfQy5FBiY7wrmqpAAzu-14" value="" style="startArrow=oval;startFill=0;startSize=7;endArrow=block;endFill=0;endSize=10;dashed=1;html=1;" edge="1" parent="1">
          <mxGeometry width="100" relative="1" as="geometry">
            <mxPoint x="980" y="140" as="sourcePoint" />
            <mxPoint x="1080" y="140" as="targetPoint" />
          </mxGeometry>
        </mxCell>
        <mxCell id="eHfQy5FBiY7wrmqpAAzu-15" value="Lane" style="swimlane;startSize=20;horizontal=0;" vertex="1" parent="1">
          <mxGeometry x="120" y="1020" width="320" height="120" as="geometry" />
        </mxCell>
      </root>
    </mxGraphModel>
  </diagram>
</mxfile>
